<?xml version="1.0" encoding="us-ascii" standalone="no"?><svg xmlns="http://www.w3.org/2000/svg" xmlns:xlink="http://www.w3.org/1999/xlink" contentStyleType="text/css" height="696px" preserveAspectRatio="none" style="width:698px;height:696px;background:#FFFFFF;" version="1.1" viewBox="0 0 698 696" width="698px" zoomAndPan="magnify"><defs/><g><!--class SpringController--><g id="elem_SpringController"><rect codeLine="1" fill="#F1F1F1" height="129.4844" id="SpringController" rx="2.5" ry="2.5" style="stroke:#181818;stroke-width:0.5;" width="340" x="7" y="7"/><ellipse cx="112.75" cy="23" fill="#ADD1B2" rx="11" ry="11" style="stroke:#181818;stroke-width:1.0;"/><path d="M115.0938,18.6719 C114.1563,18.2344 113.5625,18.0938 112.6875,18.0938 C110.0625,18.0938 108.0625,20.1719 108.0625,22.8906 L108.0625,24.0156 C108.0625,26.5938 110.1719,28.4844 113.0625,28.4844 C114.2813,28.4844 115.4375,28.1875 116.1875,27.6406 C116.7656,27.2344 117.0938,26.7813 117.0938,26.3906 C117.0938,25.9375 116.7031,25.5469 116.2344,25.5469 C116.0156,25.5469 115.8125,25.625 115.625,25.8125 C115.1719,26.2969 115.1719,26.2969 114.9844,26.3906 C114.5625,26.6563 113.875,26.7813 113.1094,26.7813 C111.0625,26.7813 109.7656,25.6875 109.7656,23.9844 L109.7656,22.8906 C109.7656,21.1094 111.0156,19.7969 112.75,19.7969 C113.3281,19.7969 113.9375,19.9531 114.4063,20.2031 C114.8906,20.4844 115.0625,20.7031 115.1563,21.1094 C115.2188,21.5156 115.25,21.6406 115.3906,21.7656 C115.5313,21.9063 115.7656,22.0156 115.9844,22.0156 C116.25,22.0156 116.5156,21.875 116.6875,21.6563 C116.7969,21.5 116.8281,21.3125 116.8281,20.8906 L116.8281,19.4688 C116.8281,19.0313 116.8125,18.9063 116.7188,18.75 C116.5625,18.4844 116.2813,18.3438 115.9844,18.3438 C115.6875,18.3438 115.4844,18.4375 115.2656,18.75 L115.0938,18.6719 Z " fill="#000000"/><text fill="#000000" font-family="sans-serif" font-size="14" lengthAdjust="spacing" textLength="120" x="133.25" y="27.8467">SpringController</text><line style="stroke:#181818;stroke-width:0.5;" x1="8" x2="346" y1="39" y2="39"/><line style="stroke:#181818;stroke-width:0.5;" x1="8" x2="346" y1="47" y2="47"/><ellipse cx="18" cy="60.6484" fill="#84BE84" rx="3" ry="3" style="stroke:#038048;stroke-width:1.0;"/><text fill="#000000" font-family="sans-serif" font-size="14" lengthAdjust="spacing" textLength="207" x="27" y="63.9951">List&lt;Usuario&gt; listarUsuarios()</text><ellipse cx="18" cy="76.9453" fill="#84BE84" rx="3" ry="3" style="stroke:#038048;stroke-width:1.0;"/><text fill="#000000" font-family="sans-serif" font-size="14" lengthAdjust="spacing" textLength="212" x="27" y="80.292">Usuario obtenerUsuario(int id)</text><ellipse cx="18" cy="93.2422" fill="#84BE84" rx="3" ry="3" style="stroke:#038048;stroke-width:1.0;"/><text fill="#000000" font-family="sans-serif" font-size="14" lengthAdjust="spacing" textLength="237" x="27" y="96.5889">void crearUsuario(Usuario usuario)</text><ellipse cx="18" cy="109.5391" fill="#84BE84" rx="3" ry="3" style="stroke:#038048;stroke-width:1.0;"/><text fill="#000000" font-family="sans-serif" font-size="14" lengthAdjust="spacing" textLength="314" x="27" y="112.8857">void actualizarUsuario(int id, Usuario usuario)</text><ellipse cx="18" cy="125.8359" fill="#84BE84" rx="3" ry="3" style="stroke:#038048;stroke-width:1.0;"/><text fill="#000000" font-family="sans-serif" font-size="14" lengthAdjust="spacing" textLength="190" x="27" y="129.1826">void eliminarUsuario(int id)</text></g><!--class SpringService--><g id="elem_SpringService"><rect codeLine="9" fill="#F1F1F1" height="129.4844" id="SpringService" rx="2.5" ry="2.5" style="stroke:#181818;stroke-width:0.5;" width="340" x="7" y="213"/><ellipse cx="122.75" cy="229" fill="#ADD1B2" rx="11" ry="11" style="stroke:#181818;stroke-width:1.0;"/><path d="M125.0938,224.6719 C124.1563,224.2344 123.5625,224.0938 122.6875,224.0938 C120.0625,224.0938 118.0625,226.1719 118.0625,228.8906 L118.0625,230.0156 C118.0625,232.5938 120.1719,234.4844 123.0625,234.4844 C124.2813,234.4844 125.4375,234.1875 126.1875,233.6406 C126.7656,233.2344 127.0938,232.7813 127.0938,232.3906 C127.0938,231.9375 126.7031,231.5469 126.2344,231.5469 C126.0156,231.5469 125.8125,231.625 125.625,231.8125 C125.1719,232.2969 125.1719,232.2969 124.9844,232.3906 C124.5625,232.6563 123.875,232.7813 123.1094,232.7813 C121.0625,232.7813 119.7656,231.6875 119.7656,229.9844 L119.7656,228.8906 C119.7656,227.1094 121.0156,225.7969 122.75,225.7969 C123.3281,225.7969 123.9375,225.9531 124.4063,226.2031 C124.8906,226.4844 125.0625,226.7031 125.1563,227.1094 C125.2188,227.5156 125.25,227.6406 125.3906,227.7656 C125.5313,227.9063 125.7656,228.0156 125.9844,228.0156 C126.25,228.0156 126.5156,227.875 126.6875,227.6563 C126.7969,227.5 126.8281,227.3125 126.8281,226.8906 L126.8281,225.4688 C126.8281,225.0313 126.8125,224.9063 126.7188,224.75 C126.5625,224.4844 126.2813,224.3438 125.9844,224.3438 C125.6875,224.3438 125.4844,224.4375 125.2656,224.75 L125.0938,224.6719 Z " fill="#000000"/><text fill="#000000" font-family="sans-serif" font-size="14" lengthAdjust="spacing" textLength="100" x="143.25" y="233.8467">SpringService</text><line style="stroke:#181818;stroke-width:0.5;" x1="8" x2="346" y1="245" y2="245"/><line style="stroke:#181818;stroke-width:0.5;" x1="8" x2="346" y1="253" y2="253"/><ellipse cx="18" cy="266.6484" fill="#84BE84" rx="3" ry="3" style="stroke:#038048;stroke-width:1.0;"/><text fill="#000000" font-family="sans-serif" font-size="14" lengthAdjust="spacing" textLength="207" x="27" y="269.9951">List&lt;Usuario&gt; listarUsuarios()</text><ellipse cx="18" cy="282.9453" fill="#84BE84" rx="3" ry="3" style="stroke:#038048;stroke-width:1.0;"/><text fill="#000000" font-family="sans-serif" font-size="14" lengthAdjust="spacing" textLength="212" x="27" y="286.292">Usuario obtenerUsuario(int id)</text><ellipse cx="18" cy="299.2422" fill="#84BE84" rx="3" ry="3" style="stroke:#038048;stroke-width:1.0;"/><text fill="#000000" font-family="sans-serif" font-size="14" lengthAdjust="spacing" textLength="237" x="27" y="302.5889">void crearUsuario(Usuario usuario)</text><ellipse cx="18" cy="315.5391" fill="#84BE84" rx="3" ry="3" style="stroke:#038048;stroke-width:1.0;"/><text fill="#000000" font-family="sans-serif" font-size="14" lengthAdjust="spacing" textLength="314" x="27" y="318.8857">void actualizarUsuario(int id, Usuario usuario)</text><ellipse cx="18" cy="331.8359" fill="#84BE84" rx="3" ry="3" style="stroke:#038048;stroke-width:1.0;"/><text fill="#000000" font-family="sans-serif" font-size="14" lengthAdjust="spacing" textLength="190" x="27" y="335.1826">void eliminarUsuario(int id)</text></g><!--class UserRepository--><g id="elem_UserRepository"><rect codeLine="17" fill="#F1F1F1" height="113.1875" id="UserRepository" rx="2.5" ry="2.5" style="stroke:#181818;stroke-width:0.5;" width="271" x="65.5" y="419"/><ellipse cx="141.75" cy="435" fill="#ADD1B2" rx="11" ry="11" style="stroke:#181818;stroke-width:1.0;"/><path d="M144.0938,430.6719 C143.1563,430.2344 142.5625,430.0938 141.6875,430.0938 C139.0625,430.0938 137.0625,432.1719 137.0625,434.8906 L137.0625,436.0156 C137.0625,438.5938 139.1719,440.4844 142.0625,440.4844 C143.2813,440.4844 144.4375,440.1875 145.1875,439.6406 C145.7656,439.2344 146.0938,438.7813 146.0938,438.3906 C146.0938,437.9375 145.7031,437.5469 145.2344,437.5469 C145.0156,437.5469 144.8125,437.625 144.625,437.8125 C144.1719,438.2969 144.1719,438.2969 143.9844,438.3906 C143.5625,438.6563 142.875,438.7813 142.1094,438.7813 C140.0625,438.7813 138.7656,437.6875 138.7656,435.9844 L138.7656,434.8906 C138.7656,433.1094 140.0156,431.7969 141.75,431.7969 C142.3281,431.7969 142.9375,431.9531 143.4063,432.2031 C143.8906,432.4844 144.0625,432.7031 144.1563,433.1094 C144.2188,433.5156 144.25,433.6406 144.3906,433.7656 C144.5313,433.9063 144.7656,434.0156 144.9844,434.0156 C145.25,434.0156 145.5156,433.875 145.6875,433.6563 C145.7969,433.5 145.8281,433.3125 145.8281,432.8906 L145.8281,431.4688 C145.8281,431.0313 145.8125,430.9063 145.7188,430.75 C145.5625,430.4844 145.2813,430.3438 144.9844,430.3438 C144.6875,430.3438 144.4844,430.4375 144.2656,430.75 L144.0938,430.6719 Z " fill="#000000"/><text fill="#000000" font-family="sans-serif" font-size="14" lengthAdjust="spacing" textLength="110" x="162.25" y="439.8467">UserRepository</text><line style="stroke:#181818;stroke-width:0.5;" x1="66.5" x2="335.5" y1="451" y2="451"/><line style="stroke:#181818;stroke-width:0.5;" x1="66.5" x2="335.5" y1="459" y2="459"/><ellipse cx="76.5" cy="472.6484" fill="#84BE84" rx="3" ry="3" style="stroke:#038048;stroke-width:1.0;"/><text fill="#000000" font-family="sans-serif" font-size="14" lengthAdjust="spacing" textLength="159" x="85.5" y="475.9951">List&lt;Usuario&gt; findAll()</text><ellipse cx="76.5" cy="488.9453" fill="#84BE84" rx="3" ry="3" style="stroke:#038048;stroke-width:1.0;"/><text fill="#000000" font-family="sans-serif" font-size="14" lengthAdjust="spacing" textLength="245" x="85.5" y="492.292">Optional&lt;Usuario&gt; findById(int id)</text><ellipse cx="76.5" cy="505.2422" fill="#84BE84" rx="3" ry="3" style="stroke:#038048;stroke-width:1.0;"/><text fill="#000000" font-family="sans-serif" font-size="14" lengthAdjust="spacing" textLength="181" x="85.5" y="508.5889">void save(Usuario usuario)</text><ellipse cx="76.5" cy="521.5391" fill="#84BE84" rx="3" ry="3" style="stroke:#038048;stroke-width:1.0;"/><text fill="#000000" font-family="sans-serif" font-size="14" lengthAdjust="spacing" textLength="159" x="85.5" y="524.8857">void deleteById(int id)</text></g><!--class Database--><g id="elem_Database"><rect codeLine="24" fill="#F1F1F1" height="80.5938" id="Database" rx="2.5" ry="2.5" style="stroke:#181818;stroke-width:0.5;" width="100" x="340" y="609"/><ellipse cx="355" cy="625" fill="#ADD1B2" rx="11" ry="11" style="stroke:#181818;stroke-width:1.0;"/><path d="M357.3438,620.6719 C356.4063,620.2344 355.8125,620.0938 354.9375,620.0938 C352.3125,620.0938 350.3125,622.1719 350.3125,624.8906 L350.3125,626.0156 C350.3125,628.5938 352.4219,630.4844 355.3125,630.4844 C356.5313,630.4844 357.6875,630.1875 358.4375,629.6406 C359.0156,629.2344 359.3438,628.7813 359.3438,628.3906 C359.3438,627.9375 358.9531,627.5469 358.4844,627.5469 C358.2656,627.5469 358.0625,627.625 357.875,627.8125 C357.4219,628.2969 357.4219,628.2969 357.2344,628.3906 C356.8125,628.6563 356.125,628.7813 355.3594,628.7813 C353.3125,628.7813 352.0156,627.6875 352.0156,625.9844 L352.0156,624.8906 C352.0156,623.1094 353.2656,621.7969 355,621.7969 C355.5781,621.7969 356.1875,621.9531 356.6563,622.2031 C357.1406,622.4844 357.3125,622.7031 357.4063,623.1094 C357.4688,623.5156 357.5,623.6406 357.6406,623.7656 C357.7813,623.9063 358.0156,624.0156 358.2344,624.0156 C358.5,624.0156 358.7656,623.875 358.9375,623.6563 C359.0469,623.5 359.0781,623.3125 359.0781,622.8906 L359.0781,621.4688 C359.0781,621.0313 359.0625,620.9063 358.9688,620.75 C358.8125,620.4844 358.5313,620.3438 358.2344,620.3438 C357.9375,620.3438 357.7344,620.4375 357.5156,620.75 L357.3438,620.6719 Z " fill="#000000"/><text fill="#000000" font-family="sans-serif" font-size="14" lengthAdjust="spacing" textLength="68" x="369" y="629.8467">Database</text><line style="stroke:#181818;stroke-width:0.5;" x1="341" x2="439" y1="641" y2="641"/><text fill="#000000" font-family="sans-serif" font-size="14" lengthAdjust="spacing" textLength="51" x="346" y="657.9951">Usuario</text><text fill="#000000" font-family="sans-serif" font-size="14" lengthAdjust="spacing" textLength="45" x="346" y="674.292">Phone</text><line style="stroke:#181818;stroke-width:0.5;" x1="341" x2="439" y1="681.5938" y2="681.5938"/></g><!--class PhoneService--><g id="elem_PhoneService"><rect codeLine="29" fill="#F1F1F1" height="64.2969" id="PhoneService" rx="2.5" ry="2.5" style="stroke:#181818;stroke-width:0.5;" width="309" x="382.5" y="245.5"/><ellipse cx="483.75" cy="261.5" fill="#ADD1B2" rx="11" ry="11" style="stroke:#181818;stroke-width:1.0;"/><path d="M486.0938,257.1719 C485.1563,256.7344 484.5625,256.5938 483.6875,256.5938 C481.0625,256.5938 479.0625,258.6719 479.0625,261.3906 L479.0625,262.5156 C479.0625,265.0938 481.1719,266.9844 484.0625,266.9844 C485.2813,266.9844 486.4375,266.6875 487.1875,266.1406 C487.7656,265.7344 488.0938,265.2813 488.0938,264.8906 C488.0938,264.4375 487.7031,264.0469 487.2344,264.0469 C487.0156,264.0469 486.8125,264.125 486.625,264.3125 C486.1719,264.7969 486.1719,264.7969 485.9844,264.8906 C485.5625,265.1563 484.875,265.2813 484.1094,265.2813 C482.0625,265.2813 480.7656,264.1875 480.7656,262.4844 L480.7656,261.3906 C480.7656,259.6094 482.0156,258.2969 483.75,258.2969 C484.3281,258.2969 484.9375,258.4531 485.4063,258.7031 C485.8906,258.9844 486.0625,259.2031 486.1563,259.6094 C486.2188,260.0156 486.25,260.1406 486.3906,260.2656 C486.5313,260.4063 486.7656,260.5156 486.9844,260.5156 C487.25,260.5156 487.5156,260.375 487.6875,260.1563 C487.7969,260 487.8281,259.8125 487.8281,259.3906 L487.8281,257.9688 C487.8281,257.5313 487.8125,257.4063 487.7188,257.25 C487.5625,256.9844 487.2813,256.8438 486.9844,256.8438 C486.6875,256.8438 486.4844,256.9375 486.2656,257.25 L486.0938,257.1719 Z " fill="#000000"/><text fill="#000000" font-family="sans-serif" font-size="14" lengthAdjust="spacing" textLength="98" x="504.25" y="266.3467">PhoneService</text><line style="stroke:#181818;stroke-width:0.5;" x1="383.5" x2="690.5" y1="277.5" y2="277.5"/><line style="stroke:#181818;stroke-width:0.5;" x1="383.5" x2="690.5" y1="285.5" y2="285.5"/><ellipse cx="393.5" cy="299.1484" fill="#84BE84" rx="3" ry="3" style="stroke:#038048;stroke-width:1.0;"/><text fill="#000000" font-family="sans-serif" font-size="14" lengthAdjust="spacing" textLength="283" x="402.5" y="302.4951">List&lt;PhoneVo&gt; getPhones(UUID userId)</text></g><!--class PhoneRepository--><g id="elem_PhoneRepository"><rect codeLine="33" fill="#F1F1F1" height="64.2969" id="PhoneRepository" rx="2.5" ry="2.5" style="stroke:#181818;stroke-width:0.5;" width="303" x="373.5" y="443.5"/><ellipse cx="458.75" cy="459.5" fill="#ADD1B2" rx="11" ry="11" style="stroke:#181818;stroke-width:1.0;"/><path d="M461.0938,455.1719 C460.1563,454.7344 459.5625,454.5938 458.6875,454.5938 C456.0625,454.5938 454.0625,456.6719 454.0625,459.3906 L454.0625,460.5156 C454.0625,463.0938 456.1719,464.9844 459.0625,464.9844 C460.2813,464.9844 461.4375,464.6875 462.1875,464.1406 C462.7656,463.7344 463.0938,463.2813 463.0938,462.8906 C463.0938,462.4375 462.7031,462.0469 462.2344,462.0469 C462.0156,462.0469 461.8125,462.125 461.625,462.3125 C461.1719,462.7969 461.1719,462.7969 460.9844,462.8906 C460.5625,463.1563 459.875,463.2813 459.1094,463.2813 C457.0625,463.2813 455.7656,462.1875 455.7656,460.4844 L455.7656,459.3906 C455.7656,457.6094 457.0156,456.2969 458.75,456.2969 C459.3281,456.2969 459.9375,456.4531 460.4063,456.7031 C460.8906,456.9844 461.0625,457.2031 461.1563,457.6094 C461.2188,458.0156 461.25,458.1406 461.3906,458.2656 C461.5313,458.4063 461.7656,458.5156 461.9844,458.5156 C462.25,458.5156 462.5156,458.375 462.6875,458.1563 C462.7969,458 462.8281,457.8125 462.8281,457.3906 L462.8281,455.9688 C462.8281,455.5313 462.8125,455.4063 462.7188,455.25 C462.5625,454.9844 462.2813,454.8438 461.9844,454.8438 C461.6875,454.8438 461.4844,454.9375 461.2656,455.25 L461.0938,455.1719 Z " fill="#000000"/><text fill="#000000" font-family="sans-serif" font-size="14" lengthAdjust="spacing" textLength="124" x="479.25" y="464.3467">PhoneRepository</text><line style="stroke:#181818;stroke-width:0.5;" x1="374.5" x2="675.5" y1="475.5" y2="475.5"/><line style="stroke:#181818;stroke-width:0.5;" x1="374.5" x2="675.5" y1="483.5" y2="483.5"/><ellipse cx="384.5" cy="497.1484" fill="#84BE84" rx="3" ry="3" style="stroke:#038048;stroke-width:1.0;"/><text fill="#000000" font-family="sans-serif" font-size="14" lengthAdjust="spacing" textLength="277" x="393.5" y="500.4951">List&lt;Phone&gt; findByUserId(UUID userId)</text></g><!--class PhoneController--><g id="elem_PhoneController"><rect codeLine="37" fill="#F1F1F1" height="64.2969" id="PhoneController" rx="2.5" ry="2.5" style="stroke:#181818;stroke-width:0.5;" width="309" x="382.5" y="39.5"/><ellipse cx="473.75" cy="55.5" fill="#ADD1B2" rx="11" ry="11" style="stroke:#181818;stroke-width:1.0;"/><path d="M476.0938,51.1719 C475.1563,50.7344 474.5625,50.5938 473.6875,50.5938 C471.0625,50.5938 469.0625,52.6719 469.0625,55.3906 L469.0625,56.5156 C469.0625,59.0938 471.1719,60.9844 474.0625,60.9844 C475.2813,60.9844 476.4375,60.6875 477.1875,60.1406 C477.7656,59.7344 478.0938,59.2813 478.0938,58.8906 C478.0938,58.4375 477.7031,58.0469 477.2344,58.0469 C477.0156,58.0469 476.8125,58.125 476.625,58.3125 C476.1719,58.7969 476.1719,58.7969 475.9844,58.8906 C475.5625,59.1563 474.875,59.2813 474.1094,59.2813 C472.0625,59.2813 470.7656,58.1875 470.7656,56.4844 L470.7656,55.3906 C470.7656,53.6094 472.0156,52.2969 473.75,52.2969 C474.3281,52.2969 474.9375,52.4531 475.4063,52.7031 C475.8906,52.9844 476.0625,53.2031 476.1563,53.6094 C476.2188,54.0156 476.25,54.1406 476.3906,54.2656 C476.5313,54.4063 476.7656,54.5156 476.9844,54.5156 C477.25,54.5156 477.5156,54.375 477.6875,54.1563 C477.7969,54 477.8281,53.8125 477.8281,53.3906 L477.8281,51.9688 C477.8281,51.5313 477.8125,51.4063 477.7188,51.25 C477.5625,50.9844 477.2813,50.8438 476.9844,50.8438 C476.6875,50.8438 476.4844,50.9375 476.2656,51.25 L476.0938,51.1719 Z " fill="#000000"/><text fill="#000000" font-family="sans-serif" font-size="14" lengthAdjust="spacing" textLength="118" x="494.25" y="60.3467">PhoneController</text><line style="stroke:#181818;stroke-width:0.5;" x1="383.5" x2="690.5" y1="71.5" y2="71.5"/><line style="stroke:#181818;stroke-width:0.5;" x1="383.5" x2="690.5" y1="79.5" y2="79.5"/><ellipse cx="393.5" cy="93.1484" fill="#84BE84" rx="3" ry="3" style="stroke:#038048;stroke-width:1.0;"/><text fill="#000000" font-family="sans-serif" font-size="14" lengthAdjust="spacing" textLength="283" x="402.5" y="96.4951">List&lt;PhoneVo&gt; getPhones(UUID userId)</text></g><!--link SpringController to SpringService--><g id="link_SpringController_SpringService"><path codeLine="41" d="M177,136.208 C177,160.641 177,182.504 177,206.925 " fill="none" id="SpringController-to-SpringService" style="stroke:#181818;stroke-width:1.0;stroke-dasharray:7.0,7.0;"/><polygon fill="#181818" points="177,212.925,181,203.925,177,207.925,173,203.925,177,212.925" style="stroke:#181818;stroke-width:1.0;"/><text fill="#000000" font-family="sans-serif" font-size="13" lengthAdjust="spacing" textLength="51" x="178" y="179.0669">Llama a</text></g><!--link SpringService to UserRepository--><g id="link_SpringService_UserRepository"><path codeLine="42" d="M184.792,342.136 C187.817,366.839 190.5207,388.9215 193.4467,412.8145 " fill="none" id="SpringService-to-UserRepository" style="stroke:#181818;stroke-width:1.0;stroke-dasharray:7.0,7.0;"/><polygon fill="#181818" points="194.176,418.77,197.0523,409.3505,193.5682,413.8071,189.1117,410.323,194.176,418.77" style="stroke:#181818;stroke-width:1.0;"/><text fill="#000000" font-family="sans-serif" font-size="13" lengthAdjust="spacing" textLength="38" x="192" y="385.0669">Utiliza</text></g><!--link UserRepository to Database--><g id="link_UserRepository_Database"><path codeLine="43" d="M262.102,532.106 C289.604,557.134 316.9985,582.0646 342.0265,604.8415 " fill="none" id="UserRepository-to-Database" style="stroke:#181818;stroke-width:1.0;stroke-dasharray:7.0,7.0;"/><polygon fill="#181818" points="346.464,608.8799,342.5,599.864,342.7661,605.5146,337.1155,605.7807,346.464,608.8799" style="stroke:#181818;stroke-width:1.0;"/><text fill="#000000" font-family="sans-serif" font-size="13" lengthAdjust="spacing" textLength="59" x="314" y="575.0669">Accede a</text></g><!--link PhoneController to PhoneService--><g id="link_PhoneController_PhoneService"><path codeLine="44" d="M537,103.928 C537,142.375 537,201.061 537,239.371 " fill="none" id="PhoneController-to-PhoneService" style="stroke:#181818;stroke-width:1.0;"/><polygon fill="#181818" points="537,245.371,541,236.371,537,240.371,533,236.371,537,245.371" style="stroke:#181818;stroke-width:1.0;"/><text fill="#000000" font-family="sans-serif" font-size="13" lengthAdjust="spacing" textLength="42" x="538" y="179.0669">Invoca</text></g><!--link PhoneService to PhoneRepository--><g id="link_PhoneService_PhoneRepository"><path codeLine="45" d="M535.099,309.557 C532.858,346.149 529.5236,400.6062 527.2786,437.2762 " fill="none" id="PhoneService-to-PhoneRepository" style="stroke:#181818;stroke-width:1.0;"/><polygon fill="#181818" points="526.912,443.265,531.4545,434.5262,527.2175,438.2743,523.4694,434.0374,526.912,443.265" style="stroke:#181818;stroke-width:1.0;"/><text fill="#000000" font-family="sans-serif" font-size="13" lengthAdjust="spacing" textLength="38" x="532" y="385.0669">Utiliza</text></g><!--link PhoneRepository to Database--><g id="link_PhoneRepository_Database"><path codeLine="46" d="M500.553,507.648 C478.29,536.013 449.0076,573.3202 424.8606,604.0845 " fill="none" id="PhoneRepository-to-Database" style="stroke:#181818;stroke-width:1.0;stroke-dasharray:7.0,7.0;"/><polygon fill="#181818" points="421.156,608.8043,429.8594,604.1944,424.2431,604.8712,423.5663,599.2549,421.156,608.8043" style="stroke:#181818;stroke-width:1.0;"/><text fill="#000000" font-family="sans-serif" font-size="13" lengthAdjust="spacing" textLength="59" x="459" y="575.0669">Accede a</text></g><!--SRC=[tLDDQyCm3BtdLuYUChRs1uGHwDPBeB2najrLH-i4hXri9z2D_VSbRfBcgsNddMn9JqzwiYmaMWkxtB0wF6lbZ9QI37m70FUmPUiUKrkWOHs3h2mqZMd3EmzfJD1xHuhQQCZA0MTdIAav0s6eomtRfE9yzc0eN86Ilt34z03NSqZoaHLEQly4WUYfsv4fMT3_ahP8BPatohLbfyrfCQlkWrMsbhAHzP8xrWhbCFvqIhAfD8ibtP2KaIH7WzIkimqwtACzpxkXg6wldrhH1UNDcPVn_lUgjmCvVxTXcYQRgWSoIR-C3ru6CE5erQK-yHR9_FR_eP79vrcjuj7EHR2LU4J0OEYlaPCdZ21rN2zAC0dL-6wm4Qo5e8mgrh60vJ8UZZQ2H9LQDCZMsy5w0-nL7uMkbly5]--></g></svg>